<?xml version="1.0" encoding="iso-8859-1"?>
<!-- Generator: Adobe Illustrator 25.4.1, SVG Export Plug-In . SVG Version: 6.00 Build 0)  -->
<svg version="1.1" id="Layer_1" xmlns="http://www.w3.org/2000/svg" xmlns:xlink="http://www.w3.org/1999/xlink" x="0px" y="0px"
	 width="25.881px" height="24.65px" viewBox="0 0 25.881 24.65" enable-background="new 0 0 25.881 24.65" xml:space="preserve">
<g>
	<path fill="#FFFFFF" d="M11.361,12.29l3.937,3.316c0.158,0.137,0.271,0.273,0.338,0.407c0.068,0.134,0.102,0.286,0.102,0.456
		c0,0.196-0.031,0.353-0.094,0.471c-0.063,0.118-0.15,0.177-0.261,0.177c-0.05,0-0.105-0.016-0.167-0.049s-0.147-0.098-0.258-0.196
		l-4.27-3.64c-0.014-0.006-0.032-0.02-0.054-0.04c-0.33-0.274-0.494-0.575-0.494-0.902s0.161-0.621,0.483-0.883
		c0.029-0.026,0.05-0.046,0.064-0.059l4.27-3.581c0.097-0.085,0.179-0.146,0.247-0.182c0.068-0.036,0.127-0.054,0.177-0.054
		c0.111,0,0.198,0.056,0.261,0.167c0.062,0.111,0.094,0.262,0.094,0.451c0,0.177-0.034,0.332-0.102,0.466
		c-0.068,0.134-0.181,0.267-0.338,0.397L11.361,12.29z"/>
</g>
<g>
	<path fill="#AA9869" d="M34.44-34.175h-33c-4.694,0-8.5-3.806-8.5-8.5v0c0-4.694,3.806-8.5,8.5-8.5h33c4.694,0,8.5,3.806,8.5,8.5v0
		C42.94-37.981,39.135-34.175,34.44-34.175z"/>
	<g>
		<path fill="#FFFFFF" d="M4.294-43.349c-0.005,0.188-0.027,0.308-0.066,0.359c-0.039,0.051-0.115,0.077-0.228,0.077
			c-0.087,0-0.153-0.023-0.197-0.07s-0.066-0.115-0.066-0.205c0.005-0.078,0.008-0.137,0.008-0.177l0.038-1.241
			c0.005-0.093,0.03-0.16,0.075-0.201c0.045-0.042,0.115-0.062,0.21-0.062h3.267c0.095,0,0.166,0.021,0.21,0.062
			c0.045,0.042,0.069,0.108,0.072,0.201l0.042,1.241c0,0.045,0.001,0.088,0.003,0.128s0.004,0.059,0.004,0.056
			c0,0.09-0.024,0.157-0.071,0.201c-0.048,0.044-0.119,0.066-0.214,0.066c-0.101,0-0.169-0.026-0.207-0.077
			s-0.059-0.171-0.064-0.359l-0.038-0.978H5.994v3.387h0.579h0.146c0.105,0,0.182,0.021,0.229,0.062
			C6.997-40.836,7.02-40.77,7.02-40.68c0,0.087-0.022,0.155-0.067,0.201s-0.11,0.069-0.195,0.069H4.648
			c-0.085,0-0.15-0.023-0.196-0.069c-0.045-0.046-0.067-0.114-0.067-0.201c0-0.093,0.024-0.159,0.073-0.199
			c0.049-0.041,0.132-0.061,0.25-0.061h0.124h0.579v-3.387H4.332L4.294-43.349z"/>
		<path fill="#FFFFFF" d="M9.483-40.939h0.255c0.146,0,0.248,0.02,0.309,0.061c0.06,0.04,0.09,0.106,0.09,0.199
			c0,0.1-0.026,0.17-0.079,0.21s-0.152,0.06-0.297,0.06H8.498c-0.085,0-0.15-0.023-0.195-0.069
			c-0.045-0.046-0.068-0.114-0.068-0.201c0-0.093,0.025-0.159,0.075-0.199c0.05-0.041,0.133-0.061,0.248-0.061h0.125H8.9v-3.421
			H8.682c-0.188,0-0.31-0.018-0.365-0.052c-0.055-0.035-0.083-0.102-0.083-0.2c0-0.085,0.022-0.149,0.066-0.191
			c0.044-0.043,0.11-0.064,0.197-0.064h1.587c0.383,0,0.67,0.018,0.859,0.054c0.189,0.037,0.349,0.099,0.479,0.187
			c0.168,0.113,0.3,0.262,0.396,0.447c0.097,0.186,0.145,0.385,0.145,0.598c0,0.289-0.088,0.536-0.265,0.743
			c-0.177,0.207-0.423,0.35-0.739,0.431c0.065,0.038,0.124,0.081,0.175,0.131s0.101,0.11,0.148,0.181l0.756,1.158h0.124
			c0.14,0,0.237,0.02,0.29,0.059c0.053,0.039,0.079,0.106,0.079,0.201c0,0.087-0.022,0.155-0.065,0.201
			c-0.044,0.046-0.108,0.069-0.194,0.069h-0.425c-0.123,0-0.243-0.09-0.361-0.271c-0.015-0.015-0.026-0.028-0.034-0.038
			l-0.722-1.094c-0.148-0.223-0.27-0.367-0.367-0.433c-0.096-0.065-0.224-0.098-0.381-0.098h-0.5V-40.939z M9.483-44.361v1.519
			h0.778c0.351,0,0.615-0.063,0.791-0.19c0.177-0.126,0.265-0.315,0.265-0.566c0-0.253-0.086-0.443-0.259-0.571
			s-0.431-0.192-0.774-0.192H9.483z"/>
		<path fill="#FFFFFF" d="M13.318-44.327h-0.06c-0.15,0-0.254-0.02-0.31-0.061c-0.057-0.04-0.084-0.11-0.084-0.21
			c0-0.093,0.023-0.161,0.071-0.205c0.047-0.044,0.119-0.066,0.214-0.066h0.169h0.771c0.203,0,0.332,0.02,0.387,0.058
			c0.055,0.039,0.083,0.11,0.083,0.212c0,0.101-0.032,0.17-0.098,0.21c-0.065,0.041-0.189,0.061-0.372,0.061h-0.162v2.06
			c0,0.278,0.013,0.481,0.04,0.607c0.026,0.126,0.069,0.242,0.129,0.348c0.087,0.153,0.209,0.272,0.366,0.357
			c0.156,0.085,0.33,0.127,0.52,0.127c0.357,0,0.618-0.107,0.782-0.323c0.164-0.215,0.246-0.564,0.246-1.045v-2.131h-0.198
			c-0.195,0-0.325-0.02-0.391-0.059c-0.066-0.039-0.099-0.109-0.099-0.212c0-0.103,0.026-0.173,0.079-0.212
			c0.052-0.039,0.161-0.058,0.326-0.058h0.829h0.18c0.09,0,0.158,0.022,0.205,0.067c0.046,0.045,0.069,0.113,0.069,0.203
			c0,0.101-0.027,0.17-0.082,0.21c-0.055,0.041-0.154,0.061-0.298,0.061h-0.052v2.214c0,0.609-0.136,1.066-0.408,1.371
			c-0.272,0.304-0.681,0.457-1.228,0.457c-0.494,0-0.888-0.152-1.183-0.457c-0.294-0.305-0.442-0.715-0.442-1.231V-44.327z"/>
		<path fill="#FFFFFF" d="M17.954-40.409h-0.177c-0.09,0-0.158-0.022-0.205-0.068c-0.046-0.045-0.07-0.113-0.07-0.203
			c0-0.101,0.027-0.169,0.081-0.205c0.054-0.036,0.177-0.055,0.37-0.055h0.241v-3.387h-0.241c-0.188,0-0.31-0.02-0.367-0.059
			c-0.056-0.039-0.084-0.109-0.084-0.212c0-0.093,0.023-0.161,0.07-0.205c0.046-0.044,0.117-0.066,0.212-0.066h0.169h3.105
			c0.085,0,0.15,0.025,0.194,0.077c0.044,0.051,0.066,0.126,0.066,0.224v0.887c0,0.13-0.019,0.221-0.057,0.271
			c-0.038,0.05-0.105,0.075-0.203,0.075c-0.103,0-0.173-0.027-0.212-0.083c-0.039-0.055-0.058-0.179-0.058-0.372v-0.538h-2v1.267
			h0.985v-0.2c0-0.135,0.018-0.229,0.055-0.282c0.036-0.053,0.1-0.079,0.19-0.079c0.087,0,0.148,0.028,0.182,0.084
			c0.034,0.057,0.051,0.178,0.051,0.363v0.7c0,0.188-0.018,0.308-0.053,0.361s-0.098,0.079-0.188,0.079s-0.152-0.03-0.186-0.09
			s-0.051-0.177-0.051-0.35v-0.132h-0.985v1.666h2v-0.609c0-0.193,0.02-0.317,0.058-0.372c0.039-0.055,0.11-0.083,0.212-0.083
			c0.095,0,0.163,0.026,0.201,0.077c0.039,0.051,0.059,0.148,0.059,0.292v0.947c0,0.09-0.022,0.159-0.068,0.207
			c-0.045,0.047-0.109,0.071-0.192,0.071H17.954z"/>
	</g>
	<circle fill="#2C5669" cx="34.94" cy="-42.675" r="6"/>
</g>
<g>
	<path fill="#101E29" d="M32.44-10.425h-33c-4.694,0-8.5-3.806-8.5-8.5v0c0-4.694,3.806-8.5,8.5-8.5h33c4.694,0,8.5,3.806,8.5,8.5v0
		C40.94-14.231,37.135-10.425,32.44-10.425z"/>
	<g>
		<path fill="#FFFFFF" d="M13.67-17.189h0.146c0.105,0,0.182,0.021,0.229,0.062c0.048,0.042,0.071,0.107,0.071,0.198
			c0,0.087-0.022,0.155-0.067,0.201s-0.11,0.069-0.195,0.069h-1.854c-0.085,0-0.15-0.023-0.195-0.069s-0.068-0.114-0.068-0.201
			c0-0.093,0.024-0.159,0.074-0.199c0.049-0.041,0.132-0.061,0.25-0.061h0.124h0.237v-3.387h-0.237c-0.19,0-0.313-0.02-0.367-0.059
			c-0.054-0.039-0.081-0.109-0.081-0.212c0-0.087,0.023-0.155,0.068-0.201s0.11-0.069,0.195-0.069h3.328
			c0.085,0,0.15,0.025,0.193,0.077c0.044,0.051,0.066,0.126,0.066,0.224v0.97c0,0.088-0.022,0.154-0.066,0.198
			c-0.043,0.044-0.108,0.065-0.193,0.065c-0.105,0-0.177-0.027-0.214-0.083s-0.056-0.179-0.056-0.372v-0.538h-2.042v1.267h0.993
			v-0.098c0-0.183,0.018-0.306,0.053-0.368c0.035-0.063,0.098-0.094,0.188-0.094c0.08,0,0.139,0.024,0.175,0.071
			c0.036,0.048,0.055,0.125,0.055,0.229v0.955c0,0.125-0.017,0.212-0.051,0.259c-0.034,0.048-0.094,0.072-0.179,0.072
			c-0.09,0-0.153-0.032-0.188-0.094s-0.053-0.186-0.053-0.369v-0.109h-0.993v1.666H13.67z"/>
		<path fill="#FFFFFF" d="M17.738-20.577h-0.549c-0.153,0-0.26-0.021-0.321-0.062c-0.062-0.042-0.092-0.111-0.092-0.209
			c0-0.103,0.027-0.173,0.081-0.212c0.054-0.039,0.201-0.058,0.441-0.058h1.072c0.138,0,0.231,0.018,0.28,0.054
			c0.049,0.037,0.093,0.104,0.133,0.201l1.47,3.673h0.063c0.136,0,0.229,0.019,0.278,0.057c0.05,0.038,0.075,0.105,0.075,0.203
			c0,0.103-0.024,0.173-0.071,0.212c-0.048,0.039-0.137,0.058-0.267,0.058H19.31c-0.19,0-0.313-0.02-0.367-0.058
			c-0.054-0.039-0.081-0.11-0.081-0.212c0-0.095,0.029-0.163,0.088-0.201c0.059-0.039,0.169-0.059,0.333-0.059h0.35l-0.365-0.895
			h-1.91l-0.324,0.895H17.4c0.166,0,0.278,0.02,0.338,0.059c0.061,0.039,0.09,0.106,0.09,0.201c0,0.103-0.027,0.173-0.081,0.212
			c-0.054,0.039-0.172,0.058-0.355,0.058h-0.989c-0.161,0-0.267-0.02-0.32-0.058c-0.053-0.039-0.079-0.11-0.079-0.212
			c0-0.098,0.026-0.166,0.079-0.203s0.154-0.057,0.305-0.057h0.071L17.738-20.577z M17.547-18.584h1.538l-0.809-1.993L17.547-18.584
			z"/>
		<path fill="#FFFFFF" d="M24.36-18.174c0-0.188,0.019-0.31,0.056-0.365s0.109-0.083,0.214-0.083c0.09,0,0.158,0.023,0.203,0.069
			c0.045,0.046,0.068,0.119,0.068,0.216v0.162v1.237c0,0.088-0.024,0.156-0.072,0.205c-0.047,0.049-0.114,0.073-0.199,0.073h-3.335
			h-0.177c-0.09,0-0.158-0.022-0.203-0.068c-0.045-0.045-0.068-0.113-0.068-0.203c0-0.101,0.027-0.169,0.081-0.205
			c0.054-0.036,0.176-0.055,0.367-0.055h0.47v-3.387h-0.47c-0.186,0-0.306-0.02-0.363-0.059c-0.056-0.039-0.084-0.109-0.084-0.212
			c0-0.093,0.023-0.161,0.069-0.205c0.046-0.044,0.119-0.066,0.216-0.066h0.162h1.696h0.177c0.09,0,0.159,0.022,0.207,0.067
			c0.048,0.045,0.072,0.113,0.072,0.203c0,0.103-0.028,0.174-0.085,0.212c-0.056,0.039-0.18,0.059-0.37,0.059h-0.632v3.387h2
			V-18.174z"/>
		<path fill="#FFFFFF" d="M26.465-16.791c-0.012,0.113-0.041,0.191-0.086,0.235c-0.045,0.044-0.116,0.065-0.214,0.065
			c-0.105,0-0.184-0.03-0.235-0.092s-0.081-0.161-0.088-0.299l-0.049-0.873v-0.067c0-0.121,0.023-0.206,0.07-0.256
			c0.046-0.05,0.123-0.075,0.231-0.075c0.15,0,0.258,0.108,0.323,0.323c0.03,0.108,0.059,0.189,0.086,0.245
			c0.088,0.175,0.227,0.311,0.416,0.406c0.189,0.096,0.416,0.143,0.679,0.143c0.323,0,0.586-0.077,0.788-0.229
			s0.303-0.348,0.303-0.586c0-0.198-0.062-0.357-0.186-0.478c-0.124-0.12-0.305-0.198-0.543-0.233l-0.556-0.075
			c-0.519-0.073-0.897-0.209-1.136-0.41c-0.238-0.2-0.357-0.482-0.357-0.846c0-0.383,0.158-0.706,0.476-0.966
			c0.317-0.261,0.712-0.391,1.186-0.391c0.138,0,0.283,0.019,0.436,0.055s0.326,0.093,0.519,0.171
			c0.005-0.073,0.025-0.123,0.06-0.15c0.035-0.027,0.095-0.041,0.181-0.041c0.11,0,0.187,0.016,0.229,0.049
			c0.042,0.032,0.069,0.11,0.079,0.233l0.053,0.786v0.038c0,0.088-0.025,0.156-0.075,0.205s-0.12,0.073-0.21,0.073
			c-0.133,0-0.236-0.093-0.309-0.278c-0.035-0.105-0.07-0.184-0.105-0.237c-0.083-0.125-0.202-0.222-0.357-0.29
			c-0.155-0.067-0.332-0.101-0.53-0.101c-0.304,0-0.55,0.075-0.739,0.226c-0.189,0.15-0.284,0.347-0.284,0.59
			c0,0.191,0.071,0.341,0.212,0.451c0.142,0.11,0.358,0.186,0.648,0.226l0.602,0.075c0.437,0.058,0.765,0.191,0.985,0.4
			c0.221,0.209,0.331,0.492,0.331,0.848c0,0.421-0.157,0.759-0.47,1.013s-0.732,0.382-1.256,0.382c-0.18,0-0.359-0.021-0.538-0.064
			C26.855-16.634,26.666-16.701,26.465-16.791z"/>
		<path fill="#FFFFFF" d="M30.574-16.659h-0.177c-0.09,0-0.158-0.022-0.205-0.068c-0.046-0.045-0.07-0.113-0.07-0.203
			c0-0.101,0.027-0.169,0.081-0.205c0.054-0.036,0.177-0.055,0.37-0.055h0.241v-3.387h-0.241c-0.188,0-0.31-0.02-0.367-0.059
			c-0.056-0.039-0.084-0.109-0.084-0.212c0-0.093,0.023-0.161,0.07-0.205c0.046-0.044,0.117-0.066,0.212-0.066h0.169h3.105
			c0.085,0,0.15,0.025,0.194,0.077c0.044,0.051,0.066,0.126,0.066,0.224v0.887c0,0.13-0.019,0.221-0.057,0.271
			c-0.038,0.05-0.105,0.075-0.203,0.075c-0.103,0-0.173-0.027-0.212-0.083c-0.039-0.055-0.058-0.179-0.058-0.372v-0.538h-2v1.267
			h0.985v-0.2c0-0.135,0.018-0.229,0.055-0.282c0.036-0.053,0.1-0.079,0.19-0.079c0.087,0,0.148,0.028,0.182,0.084
			c0.034,0.057,0.051,0.178,0.051,0.363v0.7c0,0.188-0.018,0.308-0.053,0.361s-0.098,0.079-0.188,0.079s-0.152-0.03-0.186-0.09
			s-0.051-0.177-0.051-0.35v-0.132h-0.985v1.666h2v-0.609c0-0.193,0.02-0.317,0.058-0.372c0.039-0.055,0.11-0.083,0.212-0.083
			c0.095,0,0.163,0.026,0.201,0.077c0.039,0.051,0.059,0.148,0.059,0.292v0.947c0,0.09-0.022,0.159-0.068,0.207
			c-0.045,0.047-0.109,0.071-0.192,0.071H30.574z"/>
	</g>
	<circle fill="none" stroke="#2C5669" stroke-miterlimit="10" cx="-0.06" cy="-18.925" r="6"/>
</g>
<g>
</g>
<g>
</g>
<g>
</g>
<g>
</g>
<g>
</g>
<g>
</g>
<g>
</g>
<g>
</g>
<g>
</g>
<g>
</g>
<g>
</g>
</svg>
